<?xml version="1.0" encoding="UTF-8"?>
<svg id="Layer_2" data-name="Layer 2" xmlns="http://www.w3.org/2000/svg" viewBox="0 0 212.12 37.74">
  <defs>
    <style>
      .cls-1 {
        fill: #435c7b;
      }

      .cls-2 {
        fill: #425c7b;
      }

      .cls-3 {
        fill: #c5c7c9;
      }
    </style>
  </defs>
  <g id="Layer_1-2" data-name="Layer 1">
    <path class="cls-2" d="M43.81,19.83l-1.19-3.33-6.79.03c-.14.09-.86,2.68-1.05,3.1-.05.11-.1.21-.21.28h-3.66s-.13-.14-.13-.2L37.69.58l.13-.05c.85.09,1.86-.09,2.69,0,.12.01.21,0,.27.13l6.89,19.17h-3.87ZM41.61,13.23l-2.2-6.84-2.41,6.59c-.07.08.04.25.09.25h4.52Z"/>
    <path class="cls-2" d="M.12.53h8.47c.2,0,1.01.23,1.24.3,5.53,1.76,5.51,9.72-.08,11.44-.25.08-1.03.3-1.24.3H3.95l-.12.12v7.08l-.12.12H.2s-.2-.19-.2-.2V.65l.12-.12ZM3.83,3.95v5.09l.12.12h3.83c2.21,0,3.21-3.32,1.37-4.71-.19-.14-.85-.5-1.04-.5H3.83Z"/>
    <path class="cls-2" d="M60.5.53v3.3l-.12.12h-4.93v15.84l-.12.12h-3.5s-.2-.19-.2-.2V3.95h-4.84s-.2-.19-.2-.2V.53h13.92Z"/>
    <polygon class="cls-2" points="76.29 .53 76.29 3.83 76.17 3.95 71.25 3.95 71.25 19.83 67.5 19.83 67.42 3.95 62.49 3.95 62.37 3.83 62.37 .53 76.29 .53"/>
    <path class="cls-2" d="M20.36.53v15.88h8.59s.12.11.2.08v3.3l-.12.12h-12.29s-.12-.11-.2-.08V.53h3.83Z"/>
    <g>
      <path class="cls-3" d="M159.27,17.29V.32l.23-.19c.13-.04.26-.02.39-.03.35-.03.85-.07,1.06.22v19.93c-.58-.07-1.38.2-1.84-.21l-11.26-16.83v17.04h-1.69V.32c.35-.36,1.08-.24,1.55-.14l11.55,17.11Z"/>
      <path class="cls-3" d="M113.22.25c2.28.15,4.56-.24,6.84-.15,3.57.14,6.6,1.32,6.69,5.43.07,3.15-1.69,4.44-4.32,5.41-.16.06-.23-.08-.2.22l4.65,9.09c-.56-.08-1.58.21-1.98-.2l-4.71-8.95h-5.21l-.21.21v8.94h-1.55V.25ZM114.91,1.66c.11,2.4-.43,5.17-.15,7.54.02.2.02.36.22.49h6.34c.11,0,1.15-.29,1.33-.36,3.01-1.11,3.3-5.58.56-7.17-.16-.09-1.11-.5-1.19-.5h-7.11Z"/>
      <path class="cls-3" d="M182.09.25c1.57-.01,3.15.01,4.72,0,2.42-.01,5.11-.46,7.11,1.33,1.85,1.66,2.04,5.05.76,7.1-.87,1.4-2.26,1.89-3.72,2.48l4.78,9.08c-.56-.08-1.58.21-1.98-.2l-4.71-8.95h-5.42v9.15h-1.55V.25ZM183.64,1.66v7.82l.21.21h6.34c3.79,0,5.17-5.55,1.94-7.44-.26-.15-1.15-.59-1.38-.59h-7.11Z"/>
      <path class="cls-3" d="M109.84,20.25l-1.76-.14-1.7-4.66-9.12.03-1.79,4.76h-1.82S100.99.28,100.99.28c.47.01,1.38-.22,1.64.21l7.2,19.76ZM97.73,14.05h8.17l-4.01-11.41-.36.34c-.93,3.46-2.77,6.97-3.7,10.39-.06.23-.13.44-.1.68Z"/>
      <path class="cls-3" d="M178.14.25v1.41h-10.56v7.75h9.01v1.41h-8.8s-.35.33-.35.35v7.67h10.7v1.41h-12.25V.25h12.25Z"/>
      <path class="cls-3" d="M81.82,11.8v8.45h-1.69V.46l.21-.21h8.59c.29,0,1.8.62,2.14.82,3.77,2.17,3.44,8.54-.71,10.19-.33.13-1.59.54-1.86.54h-6.69ZM81.82,10.39h6.55c3.24,0,4.73-4.51,2.95-7.03-.44-.62-1.92-1.7-2.67-1.7h-6.83v8.73Z"/>
      <path class="cls-3" d="M204.87.01c1.77-.1,3.82.36,5.29,1.39.17.12.97.71.94.88l-.93.91c-.78-.43-1.3-1-2.16-1.32-3.54-1.32-7.83-.1-7.32,4.36.42,3.72,6.46,2.86,9,4.23,2.99,1.61,3.24,6.29.71,8.44-2.88,2.45-9.19,1.96-11.68-1.01l1.04-1.14c.72.43,1.24,1.09,2,1.49,2.78,1.45,8.41,1.08,8.78-2.86.64-6.87-9.83-2.16-11.34-8.51-.94-3.94,1.88-6.65,5.68-6.86Z"/>
      <path class="cls-3" d="M142.66.25c-.05.46.17,1.07-.21,1.41h-5.7v18.59h-1.69V1.66h-5.7c-.39-.34-.16-.94-.21-1.41h13.52Z"/>
    </g>
    <g>
      <path class="cls-2" d="M34.85,37.65l-1.64-3.31h-1.85v3.31h-.98v-7.84h2.5c1.81,0,2.85.75,2.85,2.27,0,1.1-.54,1.8-1.55,2.09l1.75,3.48h-1.09ZM32.89,33.46c1.33,0,1.88-.41,1.88-1.38s-.54-1.39-1.88-1.39h-1.52v2.76h1.52Z"/>
      <path class="cls-2" d="M43.68,29.81v.89h-3.75v2.46h3.41v.89h-3.41v2.73h3.75v.89h-4.73v-7.84h4.73Z"/>
      <path class="cls-2" d="M51.12,32.25c-.27-1.23-.9-1.65-1.86-1.65-1.2,0-1.86.75-1.86,2.69v.86c0,1.94.66,2.69,1.86,2.69,1.02,0,1.6-.5,1.86-1.65h.94c-.25,1.76-1.32,2.54-2.81,2.54-1.74,0-2.84-1.05-2.84-3.58v-.86c0-2.54,1.1-3.58,2.84-3.58,1.55,0,2.57.82,2.82,2.54h-.96Z"/>
      <path class="cls-2" d="M59.55,37.65l-1.64-3.31h-1.85v3.31h-.98v-7.84h2.5c1.81,0,2.85.75,2.85,2.27,0,1.1-.54,1.8-1.55,2.09l1.75,3.48h-1.09ZM57.59,33.46c1.33,0,1.88-.41,1.88-1.38s-.54-1.39-1.88-1.39h-1.52v2.76h1.52Z"/>
      <path class="cls-2" d="M69.34,29.81v4.65c0,2.32-1.1,3.29-2.84,3.29s-2.84-.97-2.84-3.27v-4.66h.98v4.66c0,1.72.66,2.39,1.86,2.39s1.86-.67,1.86-2.39v-4.66h.98Z"/>
      <path class="cls-2" d="M74.07,37.65h-.98v-7.84h.98v7.84Z"/>
      <path class="cls-2" d="M82.66,29.81v.89h-2.39v6.96h-.98v-6.96h-2.39v-.89h5.75Z"/>
      <path class="cls-2" d="M86.48,37.65h-.98v-7.84h.98v7.84Z"/>
      <path class="cls-2" d="M95.55,29.81v7.84h-.96l-3.39-5.93v5.93h-.98v-7.84h.93l3.41,5.99v-5.99h.98Z"/>
      <path class="cls-2" d="M104.52,33.71v.45c0,2.54-1.15,3.58-2.89,3.58s-2.84-1.05-2.84-3.58v-.86c0-2.54,1.1-3.58,2.84-3.58,1.52,0,2.57.81,2.82,2.54h-.96c-.25-1.17-.86-1.65-1.86-1.65-1.2,0-1.86.75-1.86,2.69v.86c0,1.94.66,2.69,1.86,2.69,1.1,0,1.8-.64,1.9-2.26h-1.86v-.89h2.85Z"/>
      <path class="cls-2" d="M116.39,31.55c-.42-.55-.88-.94-1.86-.94-.91,0-1.52.41-1.52,1.23,0,.93.71,1.25,1.85,1.46,1.51.26,2.43.81,2.43,2.26,0,1.02-.68,2.19-2.64,2.19-1.27,0-2.21-.43-2.8-1.28l.81-.56c.51.6.97.96,1.99.96,1.29,0,1.66-.59,1.66-1.26,0-.74-.38-1.24-1.85-1.47-1.48-.23-2.43-.93-2.43-2.3,0-1.12.74-2.11,2.54-2.11,1.25,0,2.04.42,2.59,1.28l-.76.55Z"/>
      <path class="cls-2" d="M122.95,37.74c-1.74,0-2.84-1.05-2.84-3.58v-.86c0-2.54,1.1-3.58,2.84-3.58s2.84,1.05,2.84,3.58v.86c0,2.54-1.1,3.58-2.84,3.58ZM121.09,34.16c0,1.94.66,2.69,1.86,2.69s1.86-.75,1.86-2.69v-.86c0-1.94-.66-2.69-1.86-2.69s-1.86.75-1.86,2.69v.86Z"/>
      <path class="cls-2" d="M130.01,36.76h3.75v.89h-4.73v-7.84h.98v6.96Z"/>
      <path class="cls-2" d="M142.12,29.81v4.65c0,2.32-1.1,3.29-2.84,3.29s-2.84-.97-2.84-3.27v-4.66h.98v4.66c0,1.72.66,2.39,1.86,2.39s1.86-.67,1.86-2.39v-4.66h.98Z"/>
      <path class="cls-2" d="M150.59,29.81v.89h-2.39v6.96h-.98v-6.96h-2.39v-.89h5.75Z"/>
      <path class="cls-2" d="M154.41,37.65h-.98v-7.84h.98v7.84Z"/>
      <path class="cls-2" d="M160.61,37.74c-1.74,0-2.84-1.05-2.84-3.58v-.86c0-2.54,1.1-3.58,2.84-3.58s2.84,1.05,2.84,3.58v.86c0,2.54-1.1,3.58-2.84,3.58ZM158.75,34.16c0,1.94.66,2.69,1.86,2.69s1.86-.75,1.86-2.69v-.86c0-1.94-.66-2.69-1.86-2.69s-1.86.75-1.86,2.69v.86Z"/>
      <path class="cls-2" d="M172.01,29.81v7.84h-.96l-3.39-5.93v5.93h-.98v-7.84h.93l3.41,5.99v-5.99h.98Z"/>
      <path class="cls-2" d="M179.73,31.55c-.42-.55-.88-.94-1.86-.94-.91,0-1.52.41-1.52,1.23,0,.93.7,1.25,1.85,1.46,1.51.26,2.43.81,2.43,2.26,0,1.02-.68,2.19-2.64,2.19-1.27,0-2.21-.43-2.8-1.28l.81-.56c.51.6.97.96,1.99.96,1.28,0,1.66-.59,1.66-1.26,0-.74-.38-1.24-1.85-1.47-1.48-.23-2.43-.93-2.43-2.3,0-1.12.74-2.11,2.54-2.11,1.25,0,2.03.42,2.59,1.28l-.76.55Z"/>
    </g>
    <rect class="cls-1" x="0" y="32.76" width="25.05" height="1"/>
    <rect class="cls-1" x="186.27" y="32.76" width="25.05" height="1"/>
  </g>
</svg>